<?xml version="1.0" encoding="UTF-8"?><svg id="MyPV_Logo" xmlns="http://www.w3.org/2000/svg" viewBox="0 0 576 144"><path d="M191.8884,52.169l1.5556-4.765c-1.2773-1.1469-2.4177-2.6055-3.3465-4.4525-1.2776-2.5401-2.3044-5.0629-3.1347-7.4739h-4.4002c1.1844,3.3815,2.6291,6.894,4.3971,10.4094,1.2991,2.583,2.9492,4.6716,4.9287,6.2819Z" style="fill:#fff; stroke-width:0px;"/><path d="M180.5747,49.8804c-.9867-1.9619-1.8893-3.9222-2.7262-5.8697l-13.0494,41.7106-17.1505-50.2437h-13.4108l-17.1505,50.2437-15.7235-50.2437h-16.7076l24.2943,74.7571h15.1733l16.8194-47.8236,16.8195,47.8236h15.1688l16.4351-50.3415c-3.3964-2.1579-6.4514-5.3595-8.7919-10.0128Z" style="fill:#fff; stroke-width:0px;"/><path d="M189.9169,58.2075l1.3991-4.2855c-2.2689-1.6953-4.3063-4.0407-5.9199-7.2488-1.9043-3.7864-3.4384-7.569-4.6821-11.1956h-.1959l-1.8603,5.9462c1.0346,2.535,2.1887,5.1021,3.4803,7.6705,1.9731,3.9227,4.5766,6.9562,7.7787,9.1133Z" style="fill:#fff; stroke-width:0px;"/><path d="M218.7709,57.5755v52.6592h-15.2851v-52.6592h15.2851Z" style="fill:#fff; stroke-width:0px;"/><path d="M268.4668,55.9249v14.9541c-7.6224,0-13.8492.2192-18.6893.6576v38.6982h-15.2806v-50.9012c12.458-2.2679,23.7843-3.4086,33.9699-3.4086Z" style="fill:#fff; stroke-width:0px;"/><path d="M301.0098,55.8176c7.4748,0,13.6658,2.1248,18.5774,6.3744,4.9072,4.2541,7.4032,9.7875,7.4748,16.6003,0,3.3728-.331,6.9291-.9886,10.6642h-36.8283c2.1248,6.0836,7.108,9.1254,14.9496,9.1254,3.7396,0,9.9664-.917,18.6893-2.7466l2.089,11.9794c-8.5037,2.7108-15.5759,4.0707-21.2167,4.0707-9.7472,0-17.2802-2.6213-22.59-7.864-5.3142-5.2382-7.9713-11.9615-7.9713-20.1699,0-8.4276,2.6169-15.2091,7.8595-20.3399,5.2382-5.1264,11.8899-7.694,19.9552-7.694ZM301.3363,67.6896c-3.3684,0-6.1552.9707-8.3516,2.9121-2.2008,1.9459-3.6681,4.603-4.3972,7.9713h24.8445c-.1476-3.2252-1.3375-5.8421-3.5741-7.8595-2.2366-2.0174-5.0771-3.0239-8.5216-3.0239Z" style="fill:#fff; stroke-width:0px;"/><path d="M378.082,97.4815l1.4314,12.6414c-5.1308,1.172-10.1543,1.7625-15.0615,1.7625-6.4504,0-11.4336-1.8519-14.9496-5.5513-3.5205-3.7039-5.2784-8.9599-5.2784-15.7772v-19.3468h-10.8834v-13.6345h10.8834v-18.7966h15.2806v18.7966h16.6003v13.6345h-16.6003v17.808c0,6.1552,2.7466,9.2328,8.2442,9.2328,2.8584,0,6.3028-.255,10.3332-.7694Z" style="fill:#fff; stroke-width:0px;"/><path d="M411.8372,55.9249c7.108,0,17.1147.8454,30.0111,2.5319v51.778h-15.2806v-3.7396c-4.688,3.592-9.9664,5.3903-15.8309,5.3903-7.4032,0-13.4645-2.5676-18.1927-7.6985-4.7282-5.1264-7.0901-11.9794-7.0901-20.5546.1476-8.5037,2.5274-15.2449,7.1438-20.2281,4.6209-4.9832,11.0311-7.4793,19.2395-7.4793ZM414.2572,68.5708c-9.2373,0-13.8537,5.1666-13.8537,15.4998,0,4.4688,1.172,8.0966,3.5205,10.8834,2.344,2.7868,5.4574,4.178,9.3446,4.178,4.688,0,9.121-1.7222,13.299-5.1666v-24.7371c-4.688-.4384-8.7944-.6576-12.3104-.6576Z" style="fill:#fff; stroke-width:0px;"/><path d="M485.9253,55.9249c8.28,0,14.6902,2.4961,19.235,7.4793s6.9291,11.7244,7.1483,20.2281c0,8.1324-2.3842,14.7125-7.1483,19.7315s-10.8476,7.5285-18.2464,7.5285c-6.2312,0-11.4739-.2192-15.7235-.6576v25.3947h-15.2806V58.4568c13.1201-1.6864,23.1223-2.5319,30.0156-2.5319ZM484.4939,98.1435c3.8112,0,6.9246-1.3554,9.3446-4.0707,2.42-2.7108,3.6278-6.0434,3.6278-10.0022,0-10.3332-4.6567-15.4998-13.961-15.4998-3.5205,0-7.6224.2192-12.3149.6576v28.0339c3.8112.586,8.2487.8812,13.3035.8812Z" style="fill:#fff; stroke-width:0px;"/><path d="M185.5186,18.2361s2.7562.4168,5.0968,1.019c.1449.0373.2881.0753.4291.1139,2.4179.663,15.926,3.73,20.6336,10.4495s1.6579,17.0976,1.6579,17.0976c0,0-15.415,7.1402-21.4519-4.8629-6.0368-12.0031-6.3654-23.8172-6.3654-23.8172Z" style="fill:#00b176; stroke-width:0px;"/><path d="M232.1369,18.338c-.1448.0373-.2881.0753-.429.114-2.2181.6082-13.7509,3.2486-19.2793,8.8667.3632.4082.7016.8301,1.0082,1.2677,5.2401,7.4798,2.0958,18.4709,1.9594,18.935l-.0669.2276c5.0128.8853,11.9374.5484,15.5391-6.6129,6.0368-12.0031,6.3655-23.8172,6.3655-23.8172,0,0-2.7562.4168-5.0968,1.019Z" style="fill:#f78a1e; stroke-width:0px;"/><path d="M514.7008,110.4555h-.8467v-6.5294h-2.306v-.7521h5.4586v.7521h-2.306v6.5294Z" style="fill:#fff; stroke-width:0px;"/><path d="M521.3248,110.4555l-2.4703-6.4547h-.0398c.0465.5113.0697,1.1189.0697,1.8229v4.6318h-.7819v-7.2814h1.275l2.306,6.0064h.0398l2.3259-6.0064h1.265v7.2814h-.8467v-4.6916c0-.5379.0232-1.1223.0697-1.7531h-.0398l-2.4902,6.4447h-.6823Z" style="fill:#fff; stroke-width:0px;"/></svg>