<?xml version="1.0" encoding="UTF-8"?><svg id="ad16bfbf-ce0b-408a-8377-ea0eb8f8f40d" xmlns="http://www.w3.org/2000/svg" viewBox="0 0 26.1 26.1"><defs><style>.cls-1{fill:#FFF;stroke-width:0px;}</style></defs><path class="cls-1" d="M11.53,22.37c-5.15-.74-9.13-5.17-9.13-10.52C2.41,6.16,6.86,1.49,12.54,1.22c.17,0,.34-.01.51-.01.28,0,.51-.23.51-.51s-.23-.51-.51-.51c-.19,0-.38,0-.56.01C6.27.51,1.4,5.62,1.4,11.85c0,5.91,4.43,10.8,10.14,11.54v-1.02Z"/><path class="cls-1" d="M22.39,4.89c-.17-.23-.48-.27-.71-.1-.22.17-.27.48-.1.71,1.38,1.85,2.11,4.05,2.11,6.36,0,5.35-3.97,9.78-9.12,10.52v1.02c5.71-.75,10.14-5.63,10.14-11.54,0-2.53-.8-4.94-2.31-6.96Z"/><path class="cls-1" d="M11.53,20.14c-3.93-.72-6.92-4.16-6.92-8.29,0-4.46,3.48-8.15,7.92-8.42.28-.02.49-.26.47-.53-.02-.28-.28-.5-.53-.47C7.5,2.72,3.61,6.86,3.61,11.85c0,4.69,3.44,8.58,7.93,9.31v-1.02Z"/><path class="cls-1" d="M21.99,11.35c-.28,0-.51.23-.51.51,0,4.13-2.99,7.57-6.92,8.29v1.02c4.49-.73,7.93-4.62,7.93-9.31,0-.28-.23-.51-.51-.51Z"/><rect class="cls-1" x="12.44" y=".2" width="1.22" height="5.45"/><path class="cls-1" d="M13.05,4.62c-4,0-7.24,3.24-7.24,7.24,0,3.62,2.67,6.62,6.15,7.15v5.89c0,.6.49,1.09,1.09,1.09s1.09-.49,1.09-1.09v-5.89c3.48-.53,6.15-3.52,6.15-7.15,0-4-3.24-7.24-7.24-7.24ZM13.05,17.18c-2.94,0-5.32-2.38-5.32-5.32s2.38-5.32,5.32-5.32,5.32,2.38,5.32,5.32-2.38,5.32-5.32,5.32Z"/><rect class="cls-1" x="12.91" y="8.33" width=".37" height="7.07"/><polygon class="cls-1" points="12.96 13.58 10.75 11.36 10.75 9.97 11.11 9.97 11.11 11.21 13.22 13.32 12.96 13.58"/><polygon class="cls-1" points="13.22 12.31 12.96 12.05 14.73 10.29 14.73 9.02 15.1 9.02 15.1 10.44 13.22 12.31"/><circle class="cls-1" cx="13.09" cy="15.22" r=".92"/><circle class="cls-1" cx="13.09" cy="8.25" r=".53"/><circle class="cls-1" cx="10.93" cy="9.78" r=".53"/><circle class="cls-1" cx="14.91" cy="9.03" r=".53"/></svg>