<?xml version="1.0" encoding="UTF-8"?>
<!-- Generated by Pixelmator Pro 3.7.1 -->
<svg width="2046" height="2046" viewBox="0 0 2046 2046" xmlns="http://www.w3.org/2000/svg">
    <path id="Shape" fill="#FFF" fill-rule="evenodd" stroke="#FFF" stroke-width="3" stroke-linecap="round" stroke-linejoin="round" d="M 423.700439 1406.5 C 361.082275 1471.599976 339.528137 1494.291382 335.403503 1498.925293 C 331.278931 1503.559326 325.529541 1511.209229 322.627075 1515.925293 C 319.72467 1520.641357 315.583679 1529.334961 313.424988 1535.244141 L 309.5 1545.988281 L 247 1546.009766 C 198.310455 1546.026489 183.241425 1546.327393 178.80426 1547.371704 C 175.6716 1548.109009 170.496582 1549.981689 167.30426 1551.533081 C 163.861267 1553.206421 158.825989 1557.028076 154.927002 1560.927002 C 151.028015 1564.825928 147.20639 1569.861328 145.533112 1573.304199 C 143.981598 1576.496582 142.109009 1581.671631 141.371735 1584.804199 C 140.285706 1589.418823 140.03125 1616.221191 140.03125 1726 C 140.03125 1835.778809 140.285706 1862.581177 141.371735 1867.195801 C 142.109009 1870.328369 143.981598 1875.503418 145.533112 1878.695801 C 147.20639 1882.138672 151.028015 1887.174072 154.927002 1891.072998 C 158.825989 1894.971924 163.861267 1898.793579 167.30426 1900.466919 C 170.496582 1902.018433 175.6716 1903.890991 178.80426 1904.628296 C 183.418793 1905.714355 210.221222 1905.96875 320 1905.96875 C 429.778809 1905.96875 456.581177 1905.714355 461.19574 1904.628296 C 464.32843 1903.890991 469.503418 1902.018433 472.69574 1900.466919 C 476.138733 1898.793579 481.174011 1894.971924 485.072998 1891.072998 C 488.971985 1887.174072 492.793579 1882.138672 494.466919 1878.695801 C 496.018372 1875.503418 497.890991 1870.328369 498.628296 1867.195801 C 499.591553 1863.102905 499.973145 1852.996582 499.984375 1831.283813 C 500 1801.067627 500 1801.067627 504.25 1803.911987 C 506.587524 1805.476318 510.75 1808.102295 513.5 1809.747314 C 516.25 1811.392334 522.325012 1814.189209 527 1815.962646 C 531.674988 1817.735962 540.188721 1820.044922 545.919434 1821.093506 C 551.756775 1822.161621 560.815186 1823 566.517944 1823 C 573.597229 1823 580.016846 1822.265381 587.598511 1820.587891 C 593.59436 1819.26123 602.593689 1816.399658 607.597046 1814.229004 C 612.600403 1812.05835 619.575378 1808.349365 623.097046 1805.986816 C 626.618652 1803.624268 631.862488 1799.700928 634.75 1797.268311 L 640 1792.845337 L 640 1828.962158 C 640 1848.826294 639.523315 1869.448608 638.940674 1874.789429 C 638.358093 1880.130249 637.000244 1888.775024 635.92334 1894 C 634.846375 1899.224976 632.80072 1907.324951 631.37738 1912 C 629.954041 1916.675049 627.039185 1924.709229 624.899963 1929.85376 C 622.760742 1934.998291 618.695068 1943.323364 615.865173 1948.35376 C 613.035217 1953.384155 608.66864 1960.425049 606.16156 1964 C 603.65448 1967.574951 598.802917 1973.875 595.380371 1978 C 591.957764 1982.125 586.084534 1988.462402 582.328735 1992.083008 C 578.572937 1995.703613 573.025024 2000.682861 570 2003.147949 C 566.974976 2005.613037 561.575012 2009.675049 558 2012.174805 C 554.424988 2014.674561 547.384216 2019.035278 542.35376 2021.865112 C 537.323303 2024.695068 528.998352 2028.760742 523.85376 2030.899902 C 518.709167 2033.039185 510.674988 2035.954102 506 2037.377441 C 501.325012 2038.800659 493.224976 2040.846436 488 2041.92334 C 482.775024 2043.000244 474.130249 2044.358032 468.789429 2044.940674 C 462.360046 2045.64209 411.506226 2045.956177 318.289429 2045.870239 C 240.855225 2045.79895 174.125 2045.355957 170 2044.885986 C 165.875 2044.415894 158.674988 2043.28833 154 2042.380127 C 149.325012 2041.471924 141.068695 2039.422607 135.652679 2037.826172 C 130.236664 2036.229614 121.527466 2033.142944 116.29892 2030.966919 C 111.070374 2028.790771 102.676666 2024.695068 97.64624 2021.865112 C 92.615814 2019.035278 85.575012 2014.674561 82 2012.174805 C 78.424988 2009.675049 73.024994 2005.613037 70 2003.147949 C 66.975006 2000.682861 61.427063 1995.703613 57.671265 1992.083008 C 53.915466 1988.462402 48.042236 1982.125 44.619659 1978 C 41.197083 1973.875 36.34552 1967.574951 33.83844 1964 C 31.33136 1960.425049 26.964752 1953.384155 24.134857 1948.35376 C 21.304947 1943.323364 17.239288 1934.998291 15.100037 1929.85376 C 12.960785 1924.709229 10.045944 1916.675049 8.62262 1912 C 7.199295 1907.324951 5.153625 1899.224976 4.076691 1894 C 2.999756 1888.775024 1.641937 1880.130249 1.059311 1874.789429 C 0.365189 1868.426514 0 1817.132568 0 1726 C 0 1634.867432 0.365189 1583.573486 1.059311 1577.210571 C 1.641937 1571.869751 2.999756 1563.224976 4.076691 1558 C 5.153625 1552.775024 7.199295 1544.675049 8.62262 1540 C 10.045944 1535.324951 12.960785 1527.290771 15.100037 1522.14624 C 17.239288 1517.001709 21.304947 1508.676758 24.134857 1503.64624 C 26.964752 1498.615723 31.33136 1491.574951 33.83844 1488 C 36.34552 1484.425049 41.197083 1478.125 44.619659 1474 C 48.042236 1469.875 53.915466 1463.537598 57.671265 1459.916992 C 61.427063 1456.296387 66.975006 1451.317139 70 1448.852051 C 73.024994 1446.386963 78.424988 1442.324951 82 1439.825195 C 85.575012 1437.325439 92.615814 1432.964844 97.64624 1430.134766 C 102.676666 1427.304932 111.001678 1423.239258 116.14624 1421.100098 C 121.290802 1418.960815 129.325012 1416.046387 134 1414.623535 C 138.674988 1413.200562 146.774994 1411.134521 152 1410.031982 C 157.225006 1408.929688 167.350006 1407.530518 174.5 1406.923096 C 183.359772 1406.17041 225.112335 1405.927124 305.60022 1406.159302 L 423.700439 1406.5 Z M 700 1730.044678 C 809.662476 1615.556641 841.587646 1582.371826 841.694702 1582.437256 C 841.80188 1582.502686 841.475098 1584.343506 840.968628 1586.528076 C 840.431763 1588.84375 840.044312 1647.002197 840.039429 1726 C 840.032837 1835.80127 840.285522 1862.580322 841.371704 1867.195801 C 842.109009 1870.328369 843.981567 1875.503418 845.533081 1878.695801 C 847.206421 1882.138672 851.027954 1887.174072 854.927002 1891.072998 C 858.825928 1894.971924 863.861328 1898.793579 867.304199 1900.466919 C 870.496582 1902.018433 875.671631 1903.890991 878.804199 1904.628296 C 883.418823 1905.714355 910.221191 1905.96875 1020 1905.96875 C 1129.778809 1905.96875 1156.581177 1905.714355 1161.195801 1904.628296 C 1164.328369 1903.890991 1169.503418 1902.018433 1172.695801 1900.466919 C 1176.138672 1898.793579 1181.174072 1894.971924 1185.072998 1891.072998 C 1188.972046 1887.174072 1192.793579 1882.138672 1194.466919 1878.695801 C 1196.018433 1875.503418 1197.890991 1870.328369 1198.628296 1867.195801 C 1199.714355 1862.581177 1199.96875 1835.778809 1199.96875 1726 C 1199.96875 1616.221191 1199.714355 1589.418823 1198.628296 1584.804199 C 1197.890991 1581.671631 1196.018433 1576.496582 1194.466919 1573.304199 C 1192.793579 1569.861328 1188.972046 1564.825928 1185.072998 1560.927002 C 1181.174072 1557.028076 1176.138672 1553.206421 1172.695801 1551.533081 C 1169.503418 1549.981689 1164.328369 1548.109009 1161.195801 1547.371704 C 1156.5802 1546.2854 1129.801147 1546.032715 1020 1546.039551 C 937.822876 1546.044434 882.925903 1546.421875 880.5 1546.998779 C 878.300049 1547.521729 876.158569 1547.847168 875.741089 1547.721924 C 875.32373 1547.59668 905.473511 1515.657959 942.740479 1476.74707 L 1010.498657 1406 L 1084.788696 1406 C 1130.310547 1406 1162.839233 1406.410156 1168.789429 1407.059326 C 1174.130249 1407.641846 1182.775024 1408.999756 1188 1410.07666 C 1193.224976 1411.153564 1201.324951 1413.199219 1206 1414.622559 C 1210.675049 1416.045898 1218.709229 1418.960815 1223.85376 1421.100098 C 1228.998291 1423.239258 1237.323364 1427.304932 1242.35376 1430.134766 C 1247.384155 1432.964844 1254.425049 1437.331299 1258 1439.838379 C 1261.574951 1442.345459 1267.875 1447.197021 1272 1450.619629 C 1276.125 1454.042236 1282.46228 1459.915527 1286.083008 1463.671265 C 1289.703613 1467.427002 1294.682861 1472.974976 1297.147949 1476 C 1299.613037 1479.025024 1303.675171 1484.425049 1306.174927 1488 C 1308.674561 1491.574951 1313.035278 1498.615723 1315.865112 1503.64624 C 1318.695068 1508.676758 1322.760742 1517.001709 1324.899902 1522.14624 C 1327.039185 1527.290771 1329.954102 1535.324951 1331.377319 1540 C 1332.800659 1544.675049 1334.846436 1552.775024 1335.92334 1558 C 1337.000244 1563.224976 1338.358032 1571.869751 1338.940674 1577.210571 C 1339.634766 1583.573486 1340 1634.867432 1340 1726 C 1340 1817.132568 1339.634766 1868.426514 1338.940674 1874.789429 C 1338.358032 1880.130249 1337.000244 1888.775024 1335.92334 1894 C 1334.846436 1899.224976 1332.800659 1907.324951 1331.377319 1912 C 1329.954102 1916.675049 1327.039185 1924.709229 1324.899902 1929.85376 C 1322.760742 1934.998291 1318.695068 1943.323364 1315.865112 1948.35376 C 1313.035278 1953.384155 1308.668579 1960.425049 1306.161499 1964 C 1303.654419 1967.574951 1298.802979 1973.875 1295.380371 1978 C 1291.957764 1982.125 1286.084473 1988.462402 1282.328735 1992.083008 C 1278.572876 1995.703613 1273.025024 2000.682861 1270 2003.147949 C 1266.974976 2005.613037 1261.574951 2009.675049 1258 2012.174805 C 1254.425049 2014.674561 1247.384155 2019.035278 1242.35376 2021.865112 C 1237.323364 2024.695068 1228.998291 2028.760742 1223.85376 2030.899902 C 1218.709229 2033.039185 1210.675049 2035.954102 1206 2037.377441 C 1201.324951 2038.800659 1193.224976 2040.846436 1188 2041.92334 C 1182.775024 2043.000244 1174.130249 2044.358032 1168.789429 2044.940674 C 1162.359985 2045.64209 1111.506226 2045.956177 1018.289429 2045.870239 C 940.855225 2045.79895 874.125 2045.355957 870 2044.885986 C 865.875 2044.415894 858.675049 2043.28833 854 2042.380127 C 849.324951 2041.471924 841.068726 2039.422607 835.65271 2037.826172 C 830.236694 2036.229614 821.527466 2033.142944 816.29895 2030.966919 C 811.070435 2028.790771 802.676636 2024.695068 797.64624 2021.865112 C 792.615784 2019.035278 785.575012 2014.674561 782 2012.174805 C 778.424988 2009.675049 773.025024 2005.613037 770 2003.147949 C 766.974976 2000.682861 761.427063 1995.703613 757.671265 1992.083008 C 753.915466 1988.462402 748.042236 1982.125 744.619629 1978 C 741.197083 1973.875 736.34552 1967.574951 733.83844 1964 C 731.33136 1960.425049 726.964783 1953.384155 724.134827 1948.35376 C 721.304932 1943.323364 717.239258 1934.998291 715.100037 1929.85376 C 712.960815 1924.709229 710.045959 1916.675049 708.62262 1912 C 707.19928 1907.324951 705.153625 1899.224976 704.07666 1894 C 702.999756 1888.775024 701.641907 1880.130249 701.059326 1874.789429 C 700.419922 1868.928101 700 1838.31543 700 1797.561768 L 700 1730.044678 Z M 1718.289429 2045.870239 C 1640.855225 2045.79895 1574.125 2045.355957 1570 2044.885986 C 1565.875 2044.415894 1558.675049 2043.28833 1554 2042.380127 C 1549.324951 2041.471924 1541.068726 2039.422607 1535.65271 2037.826172 C 1530.236694 2036.229614 1521.527466 2033.142944 1516.29895 2030.966919 C 1511.070435 2028.790771 1502.676636 2024.695068 1497.64624 2021.865112 C 1492.615845 2019.035278 1485.574951 2014.674561 1482 2012.174805 C 1478.425049 2009.675049 1473.025024 2005.613037 1470 2003.147949 C 1466.974976 2000.682861 1461.427124 1995.703613 1457.671265 1992.083008 C 1453.915527 1988.462402 1448.042236 1982.125 1444.619629 1978 C 1441.197021 1973.875 1436.345581 1967.574951 1433.838501 1964 C 1431.331421 1960.425049 1426.964722 1953.384155 1424.134888 1948.35376 C 1421.304932 1943.323364 1417.239258 1934.998291 1415.100098 1929.85376 C 1412.960815 1924.709229 1410.045898 1916.675049 1408.622681 1912 C 1407.199341 1907.324951 1405.153564 1899.224976 1404.07666 1894 C 1402.999756 1888.775024 1401.641968 1880.130249 1401.059326 1874.789429 C 1400.365234 1868.426514 1400 1817.132568 1400 1726 C 1400 1634.867432 1400.365234 1583.573486 1401.059326 1577.210571 C 1401.641968 1571.869751 1402.999756 1563.224976 1404.07666 1558 C 1405.153564 1552.775024 1407.199341 1544.675049 1408.622681 1540 C 1410.045898 1535.324951 1412.960815 1527.290771 1415.100098 1522.14624 C 1417.239258 1517.001709 1421.304932 1508.676758 1424.134888 1503.64624 C 1426.964722 1498.615723 1431.331421 1491.574951 1433.838501 1488 C 1436.345581 1484.425049 1441.197021 1478.125 1444.619629 1474 C 1448.042236 1469.875 1453.915527 1463.537598 1457.671265 1459.916992 C 1461.427124 1456.296387 1466.974976 1451.317139 1470 1448.852051 C 1473.025024 1446.386963 1478.425049 1442.324951 1482 1439.825195 C 1485.574951 1437.325439 1492.615845 1432.964844 1497.64624 1430.134766 C 1502.676636 1427.304932 1511.001709 1423.239258 1516.14624 1421.100098 C 1521.290771 1418.960815 1529.324951 1416.045898 1534 1414.622559 C 1538.675049 1413.199219 1546.775024 1411.153564 1552 1410.07666 C 1557.224976 1408.999756 1565.869751 1407.641846 1571.210571 1407.059326 C 1577.573486 1406.365234 1628.867432 1406 1720 1406 C 1811.132568 1406 1862.426514 1406.365234 1868.789307 1407.059326 C 1874.130127 1407.641846 1882.774902 1408.999756 1888 1410.07666 C 1893.225098 1411.153564 1901.324951 1413.199219 1906 1414.622559 C 1910.675049 1416.045898 1918.709229 1418.960815 1923.85376 1421.100098 C 1928.998291 1423.239258 1937.323242 1427.304932 1942.35376 1430.134766 C 1947.384277 1432.964844 1954.425049 1437.331299 1958 1439.838379 C 1961.574951 1442.345459 1967.875 1447.197021 1972 1450.619629 C 1976.125 1454.042236 1982.462402 1459.915527 1986.083008 1463.671265 C 1989.703613 1467.427002 1994.682861 1472.974976 1997.147949 1476 C 1999.613037 1479.025024 2003.675049 1484.425049 2006.174805 1488 C 2008.674561 1491.574951 2013.035156 1498.615723 2015.865234 1503.64624 C 2018.695068 1508.676758 2022.760742 1517.001709 2024.899902 1522.14624 C 2027.039307 1527.290771 2029.954102 1535.324951 2031.377441 1540 C 2032.800781 1544.675049 2034.846436 1552.775024 2035.92334 1558 C 2037.000244 1563.224976 2038.358154 1571.869751 2038.940674 1577.210571 C 2039.634766 1583.573486 2040 1634.867432 2040 1726 C 2040 1817.132568 2039.634766 1868.426514 2038.940674 1874.789429 C 2038.358154 1880.130249 2037.000244 1888.775024 2035.92334 1894 C 2034.846436 1899.224976 2032.800781 1907.324951 2031.377441 1912 C 2029.954102 1916.675049 2027.039307 1924.709229 2024.899902 1929.85376 C 2022.760742 1934.998291 2018.695068 1943.323364 2015.865234 1948.35376 C 2013.035156 1953.384155 2008.668701 1960.425049 2006.161621 1964 C 2003.654541 1967.574951 1998.802979 1973.875 1995.380371 1978 C 1991.957764 1982.125 1986.084473 1988.462402 1982.328613 1992.083008 C 1978.572998 1995.703613 1973.024902 2000.682861 1970 2003.147949 C 1966.975098 2005.613037 1961.574951 2009.675049 1958 2012.174805 C 1954.425049 2014.674561 1947.384277 2019.035278 1942.35376 2021.865112 C 1937.323242 2024.695068 1928.998291 2028.760742 1923.85376 2030.899902 C 1918.709229 2033.039185 1910.675049 2035.954102 1906 2037.377441 C 1901.324951 2038.800659 1893.225098 2040.846436 1888 2041.92334 C 1882.774902 2043.000244 1874.130127 2044.358032 1868.789307 2044.940674 C 1862.360107 2045.64209 1811.506226 2045.956177 1718.289429 2045.870239 Z M 1719.5 1905.899292 C 1829.885254 1905.955688 1856.572754 1905.716309 1861.195801 1904.628296 C 1864.328369 1903.890991 1869.503418 1902.018433 1872.695801 1900.466919 C 1876.138672 1898.793579 1881.174072 1894.971924 1885.072998 1891.072998 C 1888.971924 1887.174072 1892.793701 1882.138672 1894.466797 1878.695801 C 1896.018311 1875.503418 1897.891113 1870.328369 1898.628174 1867.195801 C 1899.714355 1862.581177 1899.96875 1835.778809 1899.96875 1726 C 1899.96875 1616.221191 1899.714355 1589.418823 1898.628174 1584.804199 C 1897.891113 1581.671631 1896.018311 1576.496582 1894.466797 1573.304199 C 1892.793701 1569.861328 1888.971924 1564.825928 1885.072998 1560.927002 C 1881.174072 1557.028076 1876.138672 1553.206421 1872.695801 1551.533081 C 1869.503418 1549.981689 1864.328369 1548.109009 1861.195801 1547.371704 C 1856.581299 1546.285645 1829.778809 1546.03125 1720 1546.03125 C 1610.221191 1546.03125 1583.418823 1546.285645 1578.804199 1547.371704 C 1575.671631 1548.109009 1570.496582 1549.981689 1567.304199 1551.533081 C 1563.861328 1553.206421 1558.825928 1557.028076 1554.927002 1560.927002 C 1551.027954 1564.825928 1547.206421 1569.861328 1545.533081 1573.304199 C 1543.981567 1576.496582 1542.109009 1581.671631 1541.371704 1584.804199 C 1540.285645 1589.418823 1540.03125 1616.221191 1540.03125 1726 C 1540.03125 1835.778809 1540.285645 1862.581177 1541.371704 1867.195801 C 1542.109009 1870.328369 1543.981567 1875.503418 1545.533081 1878.695801 C 1547.206421 1882.138672 1551.027954 1887.174072 1554.927002 1891.072998 C 1558.847656 1894.993652 1563.859741 1898.792969 1567.3479 1900.488281 C 1570.564209 1902.051514 1575.51416 1903.892822 1578.3479 1904.5802 C 1582.332153 1905.546631 1614.328857 1905.845703 1719.5 1905.899292 Z M 1653.331543 678.126099 C 1666.022461 665.562256 1671.865845 660.910889 1675 659.309814 C 1679.94397 656.784058 1681.510986 656.5 1690.5 656.5 C 1699.194336 656.5 1701.227661 656.841187 1706.072632 659.113525 C 1709.92627 660.920776 1715.670532 665.547974 1724.69397 674.113525 C 1731.870728 680.926025 1746.216187 694.599976 1756.572754 704.5 C 1766.929199 714.400024 1781.724609 728.554688 1789.451416 735.954834 C 1797.178101 743.354858 1810.517212 756.213013 1819.09375 764.528198 C 1831.507324 776.563477 1835.273193 780.855591 1837.557861 785.573486 C 1840.089355 790.800659 1840.432373 792.623169 1840.464111 801.017578 C 1840.49707 809.747681 1840.234375 811.074951 1837.289307 817.060669 C 1834.611084 822.503662 1829.422607 828.426758 1806.012329 852.76709 C 1790.57605 868.81665 1748.192993 913.013794 1711.827759 950.983032 C 1650.274414 1015.251343 1645.254761 1020.241577 1639.12561 1023.258911 C 1633.084473 1026.233032 1631.74939 1026.5 1622.920166 1026.5 C 1613.860474 1026.5 1612.908813 1026.295532 1606.630615 1023 C 1601.129395 1020.112427 1592.57373 1012.426636 1557.731323 979.073364 C 1534.50415 956.838745 1507.311523 930.73291 1497.303223 921.060547 C 1482.106201 906.373413 1478.644409 902.487427 1476.303223 897.487183 C 1473.818237 892.17981 1473.5 890.364624 1473.5 881.5 C 1473.5 872.571533 1473.800049 870.888916 1476.300415 865.797363 C 1477.840576 862.660889 1482.311646 856.656494 1486.236084 852.454224 L 1493.37146 844.813843 L 1478.435669 830.416138 C 1470.221069 822.497314 1460.980469 813.778564 1457.901001 811.041016 L 1452.30188 806.063721 L 1421.129639 838.511353 C 1403.984863 856.357544 1375.10498 886.481812 1356.952271 905.454224 C 1338.799561 924.426636 1293.246704 971.930054 1255.723633 1011.017334 C 1218.200684 1050.104614 1185.15686 1084.677856 1182.293091 1087.84668 C 1177.086182 1093.608398 1177.086182 1093.608398 1179.149658 1099.209717 C 1180.78833 1103.658325 1181.135376 1106.528198 1180.835815 1113.155518 C 1180.54834 1119.517822 1179.831177 1122.849121 1177.816772 1127.17981 C 1175.786499 1131.544678 1170.631348 1137.613525 1155.549561 1153.393555 C 1144.755615 1164.687134 1125.581787 1184.734741 1112.941162 1197.943604 C 1100.300537 1211.152588 1063.428955 1249.654785 1031.00415 1283.504028 C 998.579346 1317.353271 957.39624 1360.320313 939.486084 1378.986572 C 921.575806 1397.652588 864.656372 1457.057983 812.998413 1510.998413 C 761.340515 1564.938721 703.540833 1625.263184 684.55481 1645.05249 C 665.568726 1664.841919 636.050903 1695.635376 618.959534 1713.482422 C 591.120972 1742.55188 587.206604 1746.265259 581.377502 1749.13501 C 576.128296 1751.718994 573.385193 1752.402832 567.185303 1752.672363 C 561.529297 1752.918213 557.91571 1752.488037 553.5 1751.043457 C 549.767578 1749.822388 545.312317 1747.270142 541.711487 1744.290283 C 538.527771 1741.65564 521.102905 1725.199463 502.989502 1707.720947 C 484.876038 1690.242432 451.705872 1658.41626 429.278015 1636.996094 C 406.850098 1615.575928 386.871094 1595.971191 384.880127 1593.430176 C 382.889221 1590.88916 380.414246 1586.304688 379.380127 1583.242432 C 378.113831 1579.492676 377.535522 1575.118652 377.608765 1569.845459 C 377.701599 1563.161011 378.192871 1561.050537 380.968506 1555.412354 C 383.727112 1549.808838 389.354797 1543.448242 418.124207 1513.418213 C 436.77179 1493.953369 468.006226 1461.379883 487.534058 1441.032715 C 507.061951 1420.685547 538.56427 1387.837769 557.539307 1368.037842 C 576.514282 1348.237793 618.349976 1304.574097 650.507507 1271.007324 C 682.664978 1237.44043 734.620361 1183.196655 765.963928 1150.465454 C 797.307495 1117.734253 848.920166 1063.851929 880.658691 1030.727051 C 912.397339 997.602173 945.820557 962.814941 954.932617 953.421997 C 968.194214 939.751709 972.669556 935.776611 977.361328 933.500244 C 981.783203 931.354736 985.136597 930.545532 991.016235 930.2052 C 996.757813 929.872803 1000.316528 930.227905 1004.532227 931.553955 C 1010.254761 933.353882 1010.254761 933.353882 1028.643677 914.192749 C 1038.757568 903.654053 1061.88916 879.512695 1080.047119 860.54541 C 1098.205078 841.578003 1137.460205 800.600708 1167.280762 769.484619 C 1197.101318 738.368652 1222.516357 711.052124 1223.758667 708.78125 C 1225.000977 706.510498 1227.385864 700.380615 1229.05835 695.159302 C 1230.730835 689.93811 1233.029419 680.22876 1234.16626 673.58313 C 1235.908936 663.39624 1236.144897 658.910522 1235.670044 645 C 1235.285034 633.721069 1234.472534 625.810303 1233.102417 620 C 1232 615.324951 1230.130005 608.349976 1228.946899 604.5 C 1227.763794 600.650024 1225.340698 594.349976 1223.5625 590.5 C 1221.084473 585.135254 1218.65686 581.928589 1213.17041 576.773193 C 1209.233154 573.073486 1201.846558 566.921265 1196.755859 563.101563 C 1191.665161 559.28186 1183.514771 553.659546 1178.643921 550.607544 C 1173.773071 547.555542 1165.043945 542.747314 1159.245728 539.922607 C 1153.447632 537.0979 1144.079834 533.050049 1138.428345 530.927246 C 1132.776978 528.804443 1123.056152 525.710815 1116.826538 524.052368 C 1110.596924 522.394043 1100.324951 520.157349 1094 519.082153 C 1087.675049 518.006958 1075.75 516.597168 1067.5 515.949341 C 1058.713745 515.259399 1047.114746 515.050537 1039.5 515.445313 C 1032.349976 515.815796 1021.356079 516.784302 1015.06897 517.597534 C 1008.781982 518.410645 999.556885 519.998291 994.56897 521.125732 C 988.132935 522.580322 983.767578 523.002686 979.532837 522.580322 C 976.178711 522.24585 970.923828 520.742798 967.532837 519.148071 C 964.214722 517.587646 959.517578 514.328491 957.094604 511.905396 C 954.671509 509.482422 951.315918 504.578979 949.637451 501.008911 C 947.104126 495.620117 946.578491 493.241211 946.542847 487.001221 C 946.516968 482.459229 947.196533 477.311157 948.260132 473.99231 C 949.228149 470.971558 951.602051 466.352905 953.5354 463.728516 C 955.46875 461.104248 961.876709 455.110962 967.775269 450.410156 C 973.673828 445.709229 985.071899 437.465088 993.10437 432.089844 C 1001.136719 426.714478 1013.286743 419.127563 1020.10437 415.230103 C 1026.921997 411.33252 1038.973755 404.983643 1046.885986 401.12146 C 1054.79834 397.259155 1066.498291 391.994995 1072.885986 389.423218 C 1079.273682 386.851318 1090.22937 382.81311 1097.231934 380.449463 C 1104.234497 378.085815 1116.240479 374.534546 1123.911865 372.557617 C 1131.583252 370.580811 1144.303955 367.872803 1152.179932 366.539795 C 1160.05603 365.206909 1173.257568 363.571533 1181.516846 362.905762 C 1190.74353 362.161987 1204.045898 361.925659 1216.016846 362.292969 C 1226.732544 362.621704 1240.224976 363.614502 1246 364.499146 C 1251.775024 365.383789 1261.675049 367.246338 1268 368.638184 C 1274.324951 370.030029 1285.800049 373.214478 1293.5 375.714844 C 1301.199951 378.21521 1313.125 382.706055 1320 385.69458 C 1326.875 388.683105 1337.449951 393.873047 1343.5 397.227661 C 1349.550049 400.582397 1358.978149 406.223999 1364.451416 409.764648 C 1369.924683 413.305298 1379.599731 420.178467 1385.951416 425.038208 C 1392.303101 429.898071 1401.418335 437.390015 1406.20752 441.687134 C 1410.996704 445.984253 1422.106567 456.388306 1430.896118 464.807373 C 1446.877197 480.114868 1446.877197 480.114868 1449.731079 478.639038 C 1451.300659 477.827393 1455.265869 476.679443 1458.54248 476.088135 C 1462.575684 475.360352 1466.437988 475.327515 1470.5 475.98645 C 1473.800049 476.521729 1478.891968 478.206299 1481.81543 479.729858 C 1485.710815 481.76001 1503.28125 497.973267 1547.58728 540.421631 C 1602.948242 593.461548 1608.30896 598.882202 1611.190918 604.736328 C 1613.655396 609.74231 1614.432983 612.796875 1614.77478 618.814697 C 1615.108032 624.680786 1614.75061 627.858398 1613.264771 632.238281 C 1611.318359 637.976563 1611.318359 637.976563 1632.324951 658.05127 L 1653.331543 678.126099 Z M 324.5 1345.555664 C 243.649994 1345.674683 174.125 1345.380371 170 1344.901733 C 165.875 1344.422974 158.674988 1343.28833 154 1342.380127 C 149.325012 1341.471924 141.068695 1339.422607 135.652679 1337.826172 C 130.236664 1336.229614 121.527466 1333.142944 116.29892 1330.966919 C 111.070374 1328.790771 102.676666 1324.695068 97.64624 1321.865112 C 92.615814 1319.035278 85.575012 1314.674561 82 1312.174927 C 78.424988 1309.675171 73.024994 1305.613037 70 1303.147949 C 66.975006 1300.682861 61.427063 1295.703613 57.671265 1292.083008 C 53.915466 1288.46228 48.042236 1282.125 44.619659 1278 C 41.197083 1273.875 36.34552 1267.574951 33.83844 1264 C 31.33136 1260.425049 26.964752 1253.384155 24.134857 1248.35376 C 21.304947 1243.323364 17.239288 1234.998291 15.100037 1229.85376 C 12.960785 1224.709229 10.045944 1216.675049 8.62262 1212 C 7.199295 1207.324951 5.153625 1199.224976 4.076691 1194 C 2.999756 1188.775024 1.641937 1180.130249 1.059311 1174.789429 C 0.365189 1168.426514 0 1117.132568 0 1026 C 0 934.867432 0.365189 883.573486 1.059311 877.210571 C 1.641937 871.869751 2.999756 863.224976 4.076691 858 C 5.153625 852.775024 7.199295 844.675049 8.62262 840 C 10.045944 835.324951 12.960785 827.290771 15.100037 822.14624 C 17.239288 817.001709 21.304947 808.676636 24.134857 803.64624 C 26.964752 798.615845 31.33136 791.574951 33.83844 788 C 36.34552 784.425049 41.197083 778.125 44.619659 774 C 48.042236 769.875 53.915466 763.53772 57.671265 759.916992 C 61.427063 756.296387 66.975006 751.317139 70 748.852051 C 73.024994 746.386963 78.424988 742.324829 82 739.825073 C 85.575012 737.325439 92.615814 732.964722 97.64624 730.134888 C 102.676666 727.304932 111.001678 723.239258 116.14624 721.100098 C 121.290802 718.960815 129.325012 716.045898 134 714.622681 C 138.674988 713.199341 146.774994 711.153564 152 710.07666 C 157.225006 708.999756 165.869751 707.641968 171.210571 707.059326 C 177.573547 706.365234 228.867371 706 320 706 C 411.132629 706 462.426453 706.365234 468.789429 707.059326 C 474.130249 707.641968 482.775024 708.999756 488 710.07666 C 493.224976 711.153564 501.325012 713.199341 506 714.622681 C 510.674988 716.045898 518.709167 718.960815 523.85376 721.100098 C 528.998352 723.239258 537.323303 727.304932 542.35376 730.134888 C 547.384216 732.964722 554.424988 737.331421 558 739.838501 C 561.575012 742.345581 567.875 747.197021 572 750.619629 C 576.125 754.042236 582.462341 759.915527 586.082947 763.671265 C 589.703613 767.427124 594.6828 772.974976 597.147888 776 C 599.612976 779.025024 603.67511 784.425049 606.174866 788 C 608.674622 791.574951 613.035217 798.615845 615.865173 803.64624 C 618.695068 808.676636 622.760742 817.001709 624.899963 822.14624 C 627.039185 827.290771 629.953674 835.324951 631.376526 840 C 632.799438 844.675049 634.86554 852.775024 635.967957 858 C 637.070374 863.224976 638.475891 873.349976 639.091309 880.5 C 639.877014 889.62915 640.082336 935.78125 639.780762 1035.5 C 639.544617 1113.599976 638.991333 1178.755981 638.55127 1180.291138 C 638.054626 1182.023438 608.784241 1213.320068 561.392578 1262.791138 C 485.034058 1342.5 485.034058 1342.5 478.267029 1343.919678 C 472.627441 1345.102783 447.008118 1345.375366 324.5 1345.555664 Z M 1339.5 1024.849365 C 1340.063843 1134.956787 1339.7948 1163.080078 1339.078369 1171.5 C 1338.470093 1178.650024 1337.070435 1188.775024 1335.968018 1194 C 1334.865601 1199.224976 1332.799438 1207.324951 1331.376587 1212 C 1329.953735 1216.675049 1327.039185 1224.709229 1324.899902 1229.85376 C 1322.760742 1234.998291 1318.695068 1243.323364 1315.865112 1248.35376 C 1313.035278 1253.384155 1308.674561 1260.425049 1306.174927 1264 C 1303.675171 1267.574951 1299.613037 1272.974976 1297.147949 1276 C 1294.682861 1279.025024 1289.703613 1284.572876 1286.083008 1288.328735 C 1282.46228 1292.084473 1276.125 1297.957764 1272 1301.380371 C 1267.875 1304.802979 1261.574951 1309.654419 1258 1312.161499 C 1254.425049 1314.668579 1247.384155 1319.035278 1242.35376 1321.865112 C 1237.323364 1324.695068 1228.998291 1328.760742 1223.85376 1330.899902 C 1218.709229 1333.039185 1210.675049 1335.954102 1206 1337.377319 C 1201.324951 1338.800659 1193.224976 1340.846436 1188 1341.92334 C 1182.775024 1343.000244 1174.130249 1344.358032 1168.789429 1344.940674 C 1163.411865 1345.527344 1138.944214 1346 1113.956055 1346 C 1089.13855 1346 1068.983276 1345.627808 1069.166626 1345.172852 C 1069.349976 1344.717896 1095.923096 1316.804077 1128.218018 1283.142212 C 1160.512939 1249.480225 1196.102417 1212.365356 1207.305786 1200.664673 C 1218.717407 1188.74646 1230.007324 1175.934937 1232.977905 1171.532715 C 1235.894287 1167.210938 1239.741699 1160.485474 1241.527832 1156.587402 C 1243.313965 1152.689331 1245.921387 1145.675049 1247.322144 1141 C 1248.723022 1136.324951 1250.189453 1129.158325 1250.581055 1125.074219 C 1251.283203 1117.751587 1251.37793 1117.553345 1257.396484 1110.816284 C 1260.753418 1107.058594 1280.599976 1086.178833 1301.5 1064.416748 L 1339.5 1024.849365 Z M 1400.069214 961.5 C 1420.342407 940.630127 1420.342407 940.630127 1421.921265 943.049683 C 1422.789551 944.380493 1426.061768 948.401245 1429.192993 951.984741 C 1432.324097 955.568115 1458.504395 981 1487.371338 1008.5 L 1539.856812 1058.5 L 1539.944092 1110 C 1540.01062 1149.300049 1540.348755 1162.849243 1541.371704 1167.195801 C 1542.109009 1170.328369 1543.981567 1175.503418 1545.533081 1178.695801 C 1547.206421 1182.138672 1551.027954 1187.174072 1554.927002 1191.072998 C 1558.825928 1194.972046 1563.861328 1198.793579 1567.304199 1200.466919 C 1570.496582 1202.018433 1575.671631 1203.890991 1578.804199 1204.628296 C 1583.418823 1205.714355 1610.221191 1205.96875 1720 1205.96875 C 1829.778809 1205.96875 1856.581299 1205.714355 1861.195801 1204.628296 C 1864.328369 1203.890991 1869.503418 1202.018433 1872.695801 1200.466919 C 1876.125977 1198.799805 1881.194824 1194.95752 1885.088623 1191.072998 C 1889.466797 1186.705444 1892.730225 1182.28772 1894.814941 1177.906616 C 1896.540771 1174.280273 1898.452881 1168.205322 1899.064453 1164.406616 C 1899.853271 1159.506714 1900.077881 1117.986328 1899.838135 1021.5 C 1899.5 885.5 1899.5 885.5 1897.260986 879.565674 C 1896.029297 876.301758 1893.832275 871.833984 1892.378662 869.637207 C 1890.318604 866.524414 1889.978516 865.296265 1890.83667 864.071533 C 1891.442627 863.207153 1893.887939 859.349976 1896.270752 855.5 C 1898.653564 851.650024 1902.256104 844 1904.276123 838.5 C 1906.296143 833 1908.633789 824.449951 1909.471191 819.5 C 1910.308594 814.550049 1910.983887 805.775024 1910.971924 800 C 1910.956787 792.770508 1910.218262 786.149414 1908.601074 778.743042 C 1907.309326 772.82666 1904.525146 764.051636 1902.414063 759.243042 C 1900.303223 754.434326 1895.897705 746.470459 1892.624512 741.54541 C 1888.585938 735.468506 1882.306885 728.318604 1873.08667 719.297363 C 1859.5 706.003906 1859.5 706.003906 1864.5 706.572021 C 1867.25 706.884399 1872.875 707.597778 1877 708.157104 C 1881.125 708.716553 1888.100098 710.005737 1892.5 711.022095 C 1896.899902 712.03833 1904.100098 714.009399 1908.5 715.401978 C 1912.899902 716.794678 1920.550049 719.671021 1925.5 721.793945 C 1930.449951 723.91687 1938.324951 727.822266 1943 730.472656 C 1947.675049 733.123047 1954.425049 737.340332 1958 739.844238 C 1961.574951 742.348145 1967.875 747.197021 1972 750.619629 C 1976.125 754.042236 1982.462402 759.915527 1986.083008 763.671265 C 1989.703613 767.427124 1994.682861 772.974976 1997.147949 776 C 1999.613037 779.025024 2003.675049 784.425049 2006.174805 788 C 2008.674561 791.574951 2013.035156 798.615845 2015.865234 803.64624 C 2018.695068 808.676636 2022.760742 817.001709 2024.899902 822.14624 C 2027.039307 827.290771 2029.954102 835.324951 2031.377441 840 C 2032.800781 844.675049 2034.846436 852.775024 2035.92334 858 C 2037.000244 863.224976 2038.358154 871.869751 2038.940674 877.210571 C 2039.634766 883.573486 2040 934.867432 2040 1026 C 2040 1117.132568 2039.634766 1168.426514 2038.940674 1174.789429 C 2038.358154 1180.130249 2037.000244 1188.775024 2035.92334 1194 C 2034.846436 1199.224976 2032.800781 1207.324951 2031.377441 1212 C 2029.954102 1216.675049 2027.039307 1224.709229 2024.899902 1229.85376 C 2022.760742 1234.998291 2018.695068 1243.323364 2015.865234 1248.35376 C 2013.035156 1253.384155 2008.668701 1260.425049 2006.161621 1264 C 2003.654541 1267.574951 1998.802979 1273.875 1995.380371 1278 C 1991.957764 1282.125 1986.084473 1288.46228 1982.328613 1292.083008 C 1978.572998 1295.703613 1973.024902 1300.682861 1970 1303.147949 C 1966.975098 1305.613037 1961.574951 1309.675171 1958 1312.174927 C 1954.425049 1314.674561 1947.384277 1319.035278 1942.35376 1321.865112 C 1937.323242 1324.695068 1928.998291 1328.760742 1923.85376 1330.899902 C 1918.709229 1333.039185 1910.675049 1335.954102 1906 1337.377319 C 1901.324951 1338.800659 1893.225098 1340.846436 1888 1341.92334 C 1882.774902 1343.000244 1874.130127 1344.358032 1868.789307 1344.940674 C 1862.360107 1345.64209 1811.506226 1345.956177 1718.289429 1345.870239 C 1640.855225 1345.79895 1574.125 1345.355957 1570 1344.885986 C 1565.875 1344.415894 1558.675049 1343.28833 1554 1342.380127 C 1549.324951 1341.471924 1541.068726 1339.422607 1535.65271 1337.826172 C 1530.236694 1336.229614 1521.527466 1333.142944 1516.29895 1330.966919 C 1511.070435 1328.790771 1502.676636 1324.695068 1497.64624 1321.865112 C 1492.615845 1319.035278 1485.574951 1314.674561 1482 1312.174927 C 1478.425049 1309.675171 1473.025024 1305.613037 1470 1303.147949 C 1466.974976 1300.682861 1461.427124 1295.703613 1457.671265 1292.083008 C 1453.915527 1288.46228 1448.042236 1282.125 1444.619629 1278 C 1441.197021 1273.875 1436.345581 1267.574951 1433.838501 1264 C 1431.331421 1260.425049 1426.964722 1253.384155 1424.134888 1248.35376 C 1421.304932 1243.323364 1417.239258 1234.998291 1415.100098 1229.85376 C 1412.960815 1224.709229 1410.045898 1216.675049 1408.622681 1212 C 1407.199341 1207.324951 1405.153564 1199.224976 1404.07666 1194 C 1402.999756 1188.775024 1401.641968 1180.130249 1401.059326 1174.789429 C 1400.381592 1168.576782 1400.012451 1128.412476 1400.034668 1063.289429 L 1400.069214 961.5 Z M 319.5 1205.899292 C 429.885193 1205.955688 456.572754 1205.716309 461.19574 1204.628296 C 464.32843 1203.890991 469.503418 1202.018433 472.69574 1200.466919 C 476.138733 1198.793579 481.174011 1194.972046 485.072998 1191.072998 C 488.971985 1187.174072 492.793579 1182.138672 494.466919 1178.695801 C 496.018372 1175.503418 497.890991 1170.328369 498.628296 1167.195801 C 499.714294 1162.581177 499.96875 1135.778809 499.96875 1026 C 499.96875 916.221191 499.714294 889.418823 498.628296 884.804199 C 497.890991 881.671631 496.018372 876.496582 494.466919 873.304199 C 492.793579 869.861328 488.971985 864.825928 485.072998 860.927002 C 481.174011 857.027954 476.138733 853.206421 472.69574 851.533081 C 469.503418 849.981567 464.32843 848.109009 461.19574 847.371704 C 456.581177 846.285645 429.778809 846.03125 320 846.03125 C 210.221222 846.03125 183.418793 846.285645 178.80426 847.371704 C 175.6716 848.109009 170.496582 849.981567 167.30426 851.533081 C 163.861267 853.206421 158.825989 857.027954 154.927002 860.927002 C 151.028015 864.825928 147.20639 869.861328 145.533112 873.304199 C 143.981598 876.496582 142.109009 881.671631 141.371735 884.804199 C 140.285706 889.418823 140.03125 916.221191 140.03125 1026 C 140.03125 1135.778809 140.285706 1162.581177 141.371735 1167.195801 C 142.109009 1170.328369 143.981598 1175.503418 145.533112 1178.695801 C 147.20639 1182.138672 151.028015 1187.174072 154.927002 1191.072998 C 158.847656 1194.993652 163.859741 1198.792969 167.34787 1200.488281 C 170.564209 1202.051514 175.514221 1203.892822 178.34787 1204.5802 C 182.332092 1205.546631 214.328796 1205.845703 319.5 1205.899292 Z M 700 1117.937256 C 700 927.890259 700.375732 883.476929 701.059326 877.210571 C 701.641907 871.869751 702.999756 863.224976 704.07666 858 C 705.153625 852.775024 707.19928 844.675049 708.62262 840 C 710.045959 835.324951 712.960815 827.290771 715.100037 822.14624 C 717.239258 817.001709 721.304932 808.676636 724.134827 803.64624 C 726.964783 798.615845 731.33136 791.574951 733.83844 788 C 736.34552 784.425049 741.197083 778.125 744.619629 774 C 748.042236 769.875 753.915466 763.53772 757.671265 759.916992 C 761.427063 756.296387 766.974976 751.317139 770 748.852051 C 773.025024 746.386963 778.424988 742.324829 782 739.825073 C 785.575012 737.325439 792.615784 732.964722 797.64624 730.134888 C 802.676636 727.304932 811.001709 723.239258 816.14624 721.100098 C 821.290771 718.960815 829.324951 716.046265 834 714.623413 C 838.675049 713.200562 846.775024 711.134399 852 710.031982 C 857.224976 708.929565 867.349976 707.53064 874.5 706.923218 C 883.376709 706.169067 926.066406 705.926758 1009.093872 706.159424 L 1130.687744 706.5 L 1063.796509 776.25 L 996.905273 846 L 940.702637 846.015625 C 897.261475 846.02771 883.206665 846.335571 878.804199 847.371704 C 875.671631 848.109009 870.496582 849.981567 867.304199 851.533081 C 863.861328 853.206421 858.825928 857.027954 854.927002 860.927002 C 851.027954 864.825928 847.206421 869.861328 845.533081 873.304199 C 843.981567 876.496582 842.109009 881.671631 841.371704 884.804199 C 840.367554 889.070801 840.027344 900.735718 840.015625 931.29187 L 840 972.08374 L 782.313843 1032.29187 C 750.586487 1065.406372 719.086487 1098.223389 712.313843 1105.218628 L 700 1117.937256 Z M 1200 291.696289 C 1199.972412 202.342773 1199.655029 189.166992 1198.628296 184.804199 C 1197.890991 181.671631 1196.018433 176.496582 1194.466919 173.304199 C 1192.793579 169.861328 1188.972046 164.825928 1185.072998 160.927002 C 1181.174072 157.028076 1176.138672 153.206299 1172.695801 151.533203 C 1169.503418 149.981689 1164.328369 148.108887 1161.195801 147.371826 C 1156.581177 146.285645 1129.778809 146.03125 1020 146.03125 C 910.221191 146.03125 883.418823 146.285645 878.804199 147.371826 C 875.671631 148.108887 870.496582 149.981689 867.304199 151.533203 C 863.861328 153.206299 858.825928 157.028076 854.927002 160.927002 C 851.027954 164.825928 847.206421 169.861328 845.533081 173.304199 C 843.981567 176.496582 842.109009 181.671631 841.371704 184.804199 C 840.285645 189.418701 840.03125 216.221191 840.03125 326 C 840.03125 435.778809 840.285645 462.581177 841.371704 467.195801 C 842.109009 470.328369 843.922363 475.364868 845.401367 478.387939 C 846.880371 481.411011 850.153564 486.178955 852.674927 488.983398 C 855.196411 491.787842 859.259766 495.45874 861.704712 497.140869 C 864.149536 498.822876 868.666748 501.223145 871.74292 502.474731 C 877.054321 504.63562 877.400146 504.995483 878.612305 509.625122 C 879.314331 512.306274 881.034546 517.828979 882.434937 521.897583 C 883.835449 525.966309 886.853882 532.716309 889.1427 536.897583 C 891.431519 541.078979 895.752808 547.650024 898.745605 551.5 C 901.738403 555.349976 907.191895 561.255005 910.864624 564.62207 C 914.537354 567.989258 920.85083 572.884521 924.894653 575.500488 C 928.938599 578.116455 936.129028 581.934814 940.873535 583.98584 C 945.618164 586.036743 953.97168 588.787842 959.437134 590.099365 C 967.39917 592.009888 972.069946 592.4823 982.937134 592.47583 C 993.371582 592.469604 998.722656 591.9552 1006.135864 590.24585 C 1011.435669 589.023804 1020.210571 587.456055 1025.635864 586.761963 C 1031.061157 586.067871 1042.699951 585.532837 1051.5 585.572998 C 1063.161377 585.626221 1071.160767 586.25769 1081 587.901489 C 1088.425049 589.141968 1100.103394 591.974976 1106.952026 594.197021 C 1113.800537 596.419067 1124.600586 600.88501 1130.952026 604.12146 C 1137.303345 607.357788 1146.775024 613.156738 1152 617.007935 C 1160.814697 623.505005 1161.617432 624.38855 1163.127441 629.255127 C 1164.022461 632.139771 1165.068726 636.801147 1165.452515 639.61377 C 1166.104858 644.395142 1165.999023 644.767944 1163.825073 645.350098 C 1162.546265 645.692505 1097.599976 645.92041 1019.5 645.856567 C 941.400024 645.792725 874.125 645.355957 870 644.885986 C 865.875 644.415894 858.675049 643.28833 854 642.380127 C 849.324951 641.471924 841.068726 639.422607 835.65271 637.826172 C 830.236694 636.229614 821.527466 633.142944 816.29895 630.966919 C 811.070435 628.790771 802.676636 624.695068 797.64624 621.865112 C 792.615784 619.035278 785.575012 614.674561 782 612.174927 C 778.424988 609.675171 773.025024 605.613037 770 603.147949 C 766.974976 600.682861 761.427063 595.703613 757.671265 592.083008 C 753.915466 588.46228 748.042236 582.125 744.619629 578 C 741.197083 573.875 736.34552 567.574951 733.83844 564 C 731.33136 560.425049 726.964783 553.384155 724.134827 548.35376 C 721.304932 543.323364 717.239258 534.998291 715.100037 529.85376 C 712.960815 524.709229 710.045959 516.675049 708.62262 512 C 707.19928 507.324951 705.153625 499.224976 704.07666 494 C 702.999756 488.775024 701.641907 480.130249 701.059326 474.789429 C 700.365173 468.426514 700 417.132568 700 326 C 700 234.867432 700.365173 183.573486 701.059326 177.210693 C 701.641907 171.869873 702.999756 163.225098 704.07666 158 C 705.153625 152.774902 707.19928 144.675049 708.62262 140 C 710.045959 135.324951 712.960815 127.290771 715.100037 122.14624 C 717.239258 117.001709 721.304932 108.676758 724.134827 103.64624 C 726.964783 98.615723 731.33136 91.574951 733.83844 88 C 736.34552 84.425049 741.197083 78.125 744.619629 74 C 748.042236 69.875 753.915466 63.537598 757.671265 59.916992 C 761.427063 56.296387 766.974976 51.317139 770 48.852051 C 773.025024 46.386963 778.424988 42.324951 782 39.825195 C 785.575012 37.325439 792.615784 32.964844 797.64624 30.134766 C 802.676636 27.304932 811.001709 23.239258 816.14624 21.100098 C 821.290771 18.960693 829.324951 16.045898 834 14.622559 C 838.675049 13.199219 846.775024 11.153564 852 10.07666 C 857.224976 8.999756 865.869751 7.641846 871.210571 7.059326 C 877.573486 6.365234 928.867432 6 1020 6 C 1111.132568 6 1162.426514 6.365234 1168.789429 7.059326 C 1174.130249 7.641846 1182.775024 8.999756 1188 10.07666 C 1193.224976 11.153564 1201.324951 13.199219 1206 14.622559 C 1210.675049 16.045898 1218.709229 18.960693 1223.85376 21.100098 C 1228.998291 23.239258 1237.323364 27.304932 1242.35376 30.134766 C 1247.384155 32.964844 1254.425049 37.331299 1258 39.838379 C 1261.574951 42.345459 1267.875 47.197021 1272 50.619629 C 1276.125 54.042236 1282.46228 59.915527 1286.083008 63.671387 C 1289.703613 67.427002 1294.682861 72.975098 1297.147949 76 C 1299.613037 79.024902 1303.675171 84.425049 1306.174927 88 C 1308.674561 91.574951 1313.035278 98.615723 1315.865112 103.64624 C 1318.695068 108.676758 1322.760742 117.001709 1324.899902 122.14624 C 1327.039185 127.290771 1329.954102 135.324951 1331.377319 140 C 1332.800659 144.675049 1334.846436 152.774902 1335.92334 158 C 1337.000244 163.225098 1338.358032 171.869873 1338.940674 177.210693 C 1339.577026 183.044189 1340 213.130859 1340 252.567627 C 1340 314.705322 1339.906494 318.174072 1338.25 317.46875 C 1337.287476 317.058594 1332.449951 315.213623 1327.5 313.368408 C 1322.550049 311.523193 1314.900024 308.923584 1310.5 307.591553 C 1306.099976 306.259521 1298.224976 304.032471 1293 302.642578 C 1287.775024 301.252686 1278.550049 299.179443 1272.5 298.0354 C 1266.449951 296.891357 1256.324951 295.282959 1250 294.460938 C 1243.675049 293.638916 1229.837524 292.680664 1219.25 292.331299 L 1200 291.696289 Z M 1796.5 645.918579 C 1771.699951 621.899292 1761.574951 612.547119 1758 609.639648 C 1754.425049 606.7323 1748.349976 602.496338 1744.5 600.226563 C 1740.650024 597.956665 1733.339722 594.5177 1728.255005 592.584473 C 1723.170288 590.651123 1715.070313 588.380127 1710.255005 587.537842 C 1705.439697 586.695557 1696.479858 586.005005 1690.343994 586.003174 C 1679.187988 586 1679.187988 586 1677.680054 581.75 C 1676.850708 579.412476 1674.479492 574.349976 1672.410767 570.5 C 1670.341919 566.650024 1666.076904 560.125 1662.932739 556 C 1659.788574 551.875 1647.262695 539.050049 1635.097412 527.5 L 1612.97876 506.5 L 1732.23938 506.327148 C 1813.362915 506.209473 1853.708496 505.802246 1858.406738 505.053467 C 1862.205322 504.447998 1868.280273 502.540649 1871.906738 500.814941 C 1876.287842 498.730103 1880.705322 495.466675 1885.072998 491.088623 C 1888.95752 487.194946 1892.799805 482.125977 1894.466797 478.695801 C 1896.018311 475.503418 1897.891113 470.328369 1898.628174 467.195801 C 1899.714355 462.581177 1899.96875 435.778809 1899.96875 326 C 1899.96875 216.221191 1899.714355 189.418701 1898.628174 184.804199 C 1897.891113 181.671631 1896.018311 176.496582 1894.466797 173.304199 C 1892.793701 169.861328 1888.971924 164.825928 1885.072998 160.927002 C 1881.174072 157.028076 1876.138672 153.206299 1872.695801 151.533203 C 1869.503418 149.981689 1864.328369 148.108887 1861.195801 147.371826 C 1856.581299 146.285645 1829.778809 146.03125 1720 146.03125 C 1610.221191 146.03125 1583.418823 146.285645 1578.804199 147.371826 C 1575.671631 148.108887 1570.496582 149.981689 1567.304199 151.533203 C 1563.861328 153.206299 1558.825928 157.028076 1554.927002 160.927002 C 1551.027954 164.825928 1547.206421 169.861328 1545.533081 173.304199 C 1543.981567 176.496582 1542.109009 181.671631 1541.371704 184.804199 C 1540.289673 189.401611 1540.028198 214.193848 1540.015625 313.377441 C 1540 436.254761 1540 436.254761 1535.738403 432.326538 C 1533.394531 430.166016 1528.781982 426.569336 1525.488403 424.333984 C 1522.194824 422.098633 1515.900024 418.463989 1511.5 416.256958 C 1507.099976 414.050049 1500.125 411.265503 1496 410.069092 C 1491.875 408.872681 1484.379517 407.293213 1479.343384 406.55896 C 1470.186768 405.223999 1470.186768 405.223999 1458.343384 394.481445 C 1451.829468 388.572998 1442.224976 380.279663 1437 376.051758 C 1431.775024 371.823853 1423.449951 365.409668 1418.5 361.797974 C 1413.550049 358.186279 1407.362549 353.944946 1404.75 352.372925 C 1400 349.514526 1400 349.514526 1400 268.217773 C 1400 217.763428 1400.401855 183.237061 1401.059326 177.210693 C 1401.641968 171.869873 1402.999756 163.225098 1404.07666 158 C 1405.153564 152.774902 1407.199341 144.675049 1408.622681 140 C 1410.045898 135.324951 1412.960815 127.290771 1415.100098 122.14624 C 1417.239258 117.001709 1421.304932 108.676758 1424.134888 103.64624 C 1426.964722 98.615723 1431.331421 91.574951 1433.838501 88 C 1436.345581 84.425049 1441.197021 78.125 1444.619629 74 C 1448.042236 69.875 1453.915527 63.537598 1457.671265 59.916992 C 1461.427124 56.296387 1466.974976 51.317139 1470 48.852051 C 1473.025024 46.386963 1478.425049 42.324951 1482 39.825195 C 1485.574951 37.325439 1492.615845 32.964844 1497.64624 30.134766 C 1502.676636 27.304932 1511.001709 23.239258 1516.14624 21.100098 C 1521.290771 18.960693 1529.324951 16.045898 1534 14.622559 C 1538.675049 13.199219 1546.775024 11.153564 1552 10.07666 C 1557.224976 8.999756 1565.869751 7.641846 1571.210571 7.059326 C 1577.573486 6.365234 1628.867432 6 1720 6 C 1811.132568 6 1862.426514 6.365234 1868.789307 7.059326 C 1874.130127 7.641846 1882.774902 8.999756 1888 10.07666 C 1893.225098 11.153564 1901.324951 13.199219 1906 14.622559 C 1910.675049 16.045898 1918.709229 18.960693 1923.85376 21.100098 C 1928.998291 23.239258 1937.323242 27.304932 1942.35376 30.134766 C 1947.384277 32.964844 1954.425049 37.331299 1958 39.838379 C 1961.574951 42.345459 1967.875 47.197021 1972 50.619629 C 1976.125 54.042236 1982.462402 59.915527 1986.083008 63.671387 C 1989.703613 67.427002 1994.682861 72.975098 1997.147949 76 C 1999.613037 79.024902 2003.675049 84.425049 2006.174805 88 C 2008.674561 91.574951 2013.035156 98.615723 2015.865234 103.64624 C 2018.695068 108.676758 2022.760742 117.001709 2024.899902 122.14624 C 2027.039307 127.290771 2029.954102 135.324951 2031.377441 140 C 2032.800781 144.675049 2034.846436 152.774902 2035.92334 158 C 2037.000244 163.225098 2038.358154 171.869873 2038.940674 177.210693 C 2039.634766 183.573486 2040 234.867432 2040 326 C 2040 417.132568 2039.634766 468.426514 2038.940674 474.789429 C 2038.358154 480.130249 2037.000244 488.775024 2035.92334 494 C 2034.846436 499.224976 2032.800781 507.324951 2031.377441 512 C 2029.954102 516.675049 2027.039307 524.709229 2024.899902 529.85376 C 2022.760742 534.998291 2018.695068 543.323364 2015.865234 548.35376 C 2013.035156 553.384155 2008.674561 560.425049 2006.174805 564 C 2003.675049 567.574951 1999.613037 572.974976 1997.147949 576 C 1994.682861 579.025024 1989.703613 584.572876 1986.083008 588.328735 C 1982.462402 592.084473 1976.125 597.957764 1972 601.380371 C 1967.875 604.802979 1961.574951 609.654419 1958 612.161499 C 1954.425049 614.668579 1947.384277 619.035278 1942.35376 621.865112 C 1937.323242 624.695068 1928.998291 628.760742 1923.85376 630.899902 C 1918.709229 633.039185 1910.675049 635.954102 1906 637.377319 C 1901.324951 638.800659 1893.225098 640.846436 1888 641.92334 C 1882.774902 643.000244 1874.130127 644.358032 1868.789307 644.940674 C 1863.448486 645.523315 1844.998535 645.981689 1827.789307 645.959351 L 1796.5 645.918579 Z"/>
</svg>
