<?xml version="1.0" encoding="UTF-8"?><svg id="Layer_1" xmlns="http://www.w3.org/2000/svg" viewBox="0 0 612 792"><defs><style>.cls-1{fill:#00b073;}.cls-1,.cls-2,.cls-3,.cls-4{stroke-width:0px;}.cls-2{fill:#ffffff;}.cls-3{fill:#f68a21;}.cls-4{fill:#ffffff;}</style></defs><polygon class="cls-2" points="166.12 681.45 181.96 631.26 198.71 631.26 174.35 706.24 174.21 706.24 159.13 706.24 158.99 706.24 142.19 658.47 125.39 706.24 125.26 706.24 110.18 706.24 110.04 706.24 85.67 631.26 102.43 631.26 118.27 681.45 135.4 631.26 135.54 631.26 148.85 631.26 148.99 631.26 166.12 681.45"/><line class="cls-4" x1="303.62" y1="306.94" x2="303.7" y2="306.87"/><path class="cls-2" d="M219.79,653.36v52.66h-15.29v-52.66h15.29Z"/><path class="cls-2" d="M269.48,651.71v14.95c-7.62,0-13.85.22-18.69.66v38.7h-15.28v-50.9c12.46-2.27,23.78-3.41,33.97-3.41Z"/><path class="cls-2" d="M302.02,651.6c7.47,0,13.67,2.12,18.58,6.37,4.91,4.25,7.4,9.79,7.47,16.6,0,3.37-.33,6.93-.99,10.66h-36.83c2.12,6.08,7.11,9.13,14.95,9.13,3.74,0,9.97-.92,18.69-2.75l2.09,11.98c-8.5,2.71-15.58,4.07-21.22,4.07-9.75,0-17.28-2.62-22.59-7.86-5.31-5.24-7.97-11.96-7.97-20.17s2.62-15.21,7.86-20.34c5.24-5.13,11.89-7.69,19.96-7.69ZM302.35,663.48c-3.37,0-6.16.97-8.35,2.91-2.2,1.95-3.67,4.6-4.4,7.97h24.84c-.15-3.23-1.34-5.84-3.57-7.86-2.24-2.02-5.08-3.02-8.52-3.02Z"/><path class="cls-2" d="M379.1,693.27l1.43,12.64c-5.13,1.17-10.15,1.76-15.06,1.76-6.45,0-11.43-1.85-14.95-5.55-3.52-3.7-5.28-8.96-5.28-15.78v-19.35h-10.88v-13.63h10.88v-18.8h15.28v18.8h16.6v13.63h-16.6v17.81c0,6.16,2.75,9.23,8.24,9.23,2.86,0,6.3-.25,10.33-.77Z"/><path class="cls-2" d="M412.85,651.71c7.11,0,17.11.85,30.01,2.53v51.78h-15.28v-3.74c-4.69,3.59-9.97,5.39-15.83,5.39-7.4,0-13.46-2.57-18.19-7.7-4.73-5.13-7.09-11.98-7.09-20.55.15-8.5,2.53-15.24,7.14-20.23,4.62-4.98,11.03-7.48,19.24-7.48ZM415.27,664.36c-9.24,0-13.85,5.17-13.85,15.5,0,4.47,1.17,8.1,3.52,10.88,2.34,2.79,5.46,4.18,9.34,4.18,4.69,0,9.12-1.72,13.3-5.17v-24.74c-4.69-.44-8.79-.66-12.31-.66Z"/><path class="cls-2" d="M486.94,651.71c8.28,0,14.69,2.5,19.24,7.48s6.93,11.72,7.15,20.23c0,8.13-2.38,14.71-7.15,19.73s-10.85,7.53-18.25,7.53c-6.23,0-11.47-.22-15.72-.66v25.39h-15.28v-77.17c13.12-1.69,23.12-2.53,30.02-2.53ZM485.51,693.93c3.81,0,6.92-1.36,9.34-4.07,2.42-2.71,3.63-6.04,3.63-10,0-10.33-4.66-15.5-13.96-15.5-3.52,0-7.62.22-12.31.66v28.03c3.81.59,8.25.88,13.3.88Z"/><path class="cls-2" d="M515.72,706.24h-.85v-6.53h-2.31v-.75h5.46v.75h-2.31v6.53Z"/><path class="cls-2" d="M522.34,706.24l-2.47-6.45h-.04c.05.51.07,1.12.07,1.82v4.63h-.78v-7.28h1.28l2.31,6.01h.04l2.33-6.01h1.27v7.28h-.85v-4.69c0-.54.02-1.12.07-1.75h-.04l-2.49,6.44h-.68Z"/><path class="cls-2" d="M370.31,265.68l8.57-8.57c-17.75-21.57-44.63-35.35-74.68-35.35s-56.66,13.64-74.41,35.02l8.57,8.57c15.53-19.22,39.27-31.53,65.84-31.53s50.59,12.46,66.11,31.86Z"/><path class="cls-2" d="M346.87,289.12l5.26-5.26c-10.62-15.06-28.15-24.91-47.93-24.91s-37.04,9.7-47.68,24.56l5.25,5.25c9.24-13.57,24.81-22.5,42.43-22.5s33.47,9.09,42.68,22.86Z"/><path class="cls-2" d="M406.46,217.28c-27.32-27.32-63.63-42.36-102.27-42.36s-74.95,15.04-102.27,42.36c-1.95,1.95-3.83,3.95-5.65,5.99l12.78,12.78c1.81-2.05,3.68-4.06,5.63-6.01,23.91-23.91,55.7-37.08,89.51-37.08s65.6,13.17,89.51,37.08c2.05,2.05,4.02,4.17,5.91,6.33l12.78-12.78c-1.91-2.15-3.88-4.26-5.94-6.31Z"/><path class="cls-3" d="M389.95,366.04s-1.08,38.81-20.91,78.24c-9.05,17.99-24.48,22.87-38.6,22.87-4.34,0-8.57-.46-12.44-1.15l.22-.75c.45-1.52,10.78-37.63-6.44-62.2-1.01-1.44-2.12-2.82-3.31-4.16,18.16-18.46,56.05-27.13,63.33-29.13.46-.13.93-.25,1.41-.37,7.69-1.98,16.74-3.35,16.74-3.35"/><path class="cls-1" d="M220.07,369.05s9.05,1.37,16.74,3.35c.48.12.95.25,1.41.37,7.94,2.18,52.32,12.25,67.78,34.33,15.46,22.07,5.45,56.17,5.45,56.17,0,0-50.64,23.46-70.47-15.97-19.83-39.43-20.91-78.24-20.91-78.24Z"/><path class="cls-2" d="M302.89,395.78l1.19-1.21c12.43-12.63,32.88-20.83,48.04-25.65l-21.8-63.85h-51.97l-22.86,66.97c14.37,4.4,34.28,11.93,47.4,23.74Z"/><path class="cls-2" d="M502.67,338.33c-2.03-.64-4.1-.94-6.13-.94-8.8,0-17,5.68-19.76,14.49l-52.29,167.1c-3.39,10.85,2.7,22.5,13.55,25.89l4.15,1.3,66.89-205.84-6.41-2.01Z"/><path class="cls-2" d="M435.95,551.55c-14.56-4.56-22.69-20.1-18.14-34.66l52.29-167.1c3.63-11.6,14.26-19.4,26.44-19.4,2.78,0,5.55.42,8.22,1.26l6.49,2.03,9.3-28.61h-64.1l-60.6,191.96-18.82-55.14c-.8,1.72-1.62,3.44-2.49,5.16-8.64,17.18-23.89,26.26-44.1,26.26-1.17,0-2.36-.04-3.57-.1l41.74,118.67h58.74l12.69-39.05-4.08-1.28Z"/><path class="cls-2" d="M182.9,518.98l-52.29-167.1c-2.76-8.81-10.96-14.49-19.76-14.49-2.03,0-4.09.3-6.13.94l-5.25,1.64,66.89,205.84,2.99-.94c10.85-3.39,16.94-15.04,13.55-25.89Z"/><path class="cls-2" d="M236.23,449.68c-1.5-2.99-2.89-5.98-4.19-8.94l-19.21,56.29-60.6-191.96h-64.1l9.18,28.25,5.32-1.67c2.67-.84,5.44-1.26,8.22-1.26,12.18,0,22.81,7.8,26.44,19.4l52.29,167.1c4.56,14.56-3.58,30.11-18.14,34.66l-2.92.91,12.81,39.41h58.74l40.94-116.4c-.45,0-.89.02-1.34.02-19.92,0-34.94-8.93-43.43-25.82Z"/><path class="cls-1" d="M303.7,66.55c-156.5,0-283.83,127.33-283.83,283.83v84.89c0,5.88,3.27,11,8.1,13.64-2.84,5.4-2.55,12.2,1.35,17.38l57.97,77c5.38,7.14,15.62,8.59,22.77,3.21l3.88-2.92c4.34,9.13,14.9,13.97,24.81,10.87l30.62-9.58c10.85-3.39,16.94-15.04,13.55-25.89l-52.29-167.1c-3.39-10.85-15.04-16.94-25.89-13.55l-30.62,9.58c-8.56,2.68-14.14,10.51-14.45,19.02-4.17,1.57-7.43,5.01-8.73,9.3v-25.85c0-139.38,113.39-252.78,252.78-252.78s252.78,113.39,252.78,252.78v25.84c-1.3-4.29-4.56-7.73-8.73-9.3-.31-8.51-5.89-16.34-14.45-19.02l-30.62-9.58c-10.85-3.39-22.5,2.7-25.89,13.55l-52.29,167.1c-3.39,10.85,2.7,22.5,13.55,25.89l30.62,9.58c9.91,3.1,20.47-1.74,24.81-10.87l3.88,2.92c7.14,5.38,17.39,3.93,22.77-3.21l57.97-77c3.9-5.18,4.19-11.98,1.35-17.38,4.83-2.63,8.1-7.75,8.1-13.64v-84.89c0-156.5-127.33-283.83-283.83-283.83Z"/></svg>