<?xml version="1.0" encoding="UTF-8"?><svg id="ad16bfbf-ce0b-408a-8377-ea0eb8f8f40d" xmlns="http://www.w3.org/2000/svg" viewBox="0 0 26.1 26.1"><defs><style>.cls-1{fill:#FFF;stroke-width:0px;}</style></defs><path class="cls-1" d="M13.05.2C5.97.2.2,5.97.2,13.05v3.84c0,.27.15.5.37.62-.13.24-.12.55.06.79l2.62,3.49c.24.32.71.39,1.03.15l.18-.13c.2.41.67.63,1.12.49l1.39-.43c.49-.15.77-.68.61-1.17l-2.37-7.56c-.15-.49-.68-.77-1.17-.61l-1.39.43c-.39.12-.64.48-.65.86-.19.07-.34.23-.4.42v-1.17C1.61,6.74,6.74,1.61,13.05,1.61s11.44,5.13,11.44,11.44v1.17c-.06-.19-.21-.35-.4-.42-.01-.39-.27-.74-.65-.86l-1.39-.43c-.49-.15-1.02.12-1.17.61l-2.37,7.56c-.15.49.12,1.02.61,1.17l1.39.43c.45.14.93-.08,1.12-.49l.18.13c.32.24.79.18,1.03-.15l2.62-3.49c.18-.23.19-.54.06-.79.22-.12.37-.35.37-.62v-3.84C25.9,5.97,20.13.2,13.05.2Z"/><path class="cls-1" d="M13.05,4.58c-3.99,0-7.22,3.23-7.22,7.22,0,3.62,2.66,6.6,6.13,7.13v5.88c0,.6.49,1.09,1.09,1.09s1.09-.49,1.09-1.09v-5.88c3.47-.53,6.13-3.51,6.13-7.13,0-3.99-3.23-7.22-7.22-7.22ZM13.05,17.11c-2.93,0-5.31-2.38-5.31-5.31s2.38-5.31,5.31-5.31,5.31,2.38,5.31,5.31-2.38,5.31-5.31,5.31Z"/><path class="cls-1" d="M23.36,12.12c-.09,0-.16-.07-.16-.15v-.34c0-.09.07-.15.16-.15s.16.07.16.15v.34c0,.09-.07.15-.16.15Z"/><path class="cls-1" d="M24.04,12.12c-.09,0-.16-.07-.16-.15v-.34c0-.09.07-.15.16-.15s.16.07.16.15v.34c0,.09-.07.15-.16.15Z"/><path class="cls-1" d="M22,12.12c-.09,0-.16-.07-.16-.15v-.34c0-.09.07-.15.16-.15s.16.07.16.15v.34c0,.09-.07.15-.16.15Z"/><path class="cls-1" d="M22.68,12.12c-.09,0-.16-.07-.16-.15v-.34c0-.09.07-.15.16-.15s.16.07.16.15v.34c0,.09-.07.15-.16.15Z"/><path class="cls-1" d="M20.64,12.12c-.09,0-.16-.07-.16-.15v-.34c0-.09.07-.15.16-.15s.16.07.16.15v.34c0,.09-.07.15-.16.15Z"/><path class="cls-1" d="M21.32,12.12c-.09,0-.16-.07-.16-.15v-.34c0-.09.07-.15.16-.15s.16.07.16.15v.34c0,.09-.07.15-.16.15Z"/><path class="cls-1" d="M4.83,12.12c-.09,0-.15-.07-.15-.15v-.34c0-.09.07-.15.15-.15s.15.07.15.15v.34c0,.09-.07.15-.15.15Z"/><path class="cls-1" d="M5.51,12.12c-.09,0-.15-.07-.15-.15v-.34c0-.09.07-.15.15-.15s.15.07.15.15v.34c0,.09-.07.15-.15.15Z"/><path class="cls-1" d="M3.47,12.12c-.09,0-.15-.07-.15-.15v-.34c0-.09.07-.15.15-.15s.15.07.15.15v.34c0,.09-.07.15-.15.15Z"/><path class="cls-1" d="M4.15,12.12c-.09,0-.15-.07-.15-.15v-.34c0-.09.07-.15.15-.15s.15.07.15.15v.34c0,.09-.07.15-.15.15Z"/><path class="cls-1" d="M2.11,12.12c-.09,0-.15-.07-.15-.15v-.34c0-.09.07-.15.15-.15s.15.07.15.15v.34c0,.09-.07.15-.15.15Z"/><path class="cls-1" d="M2.79,12.12c-.09,0-.15-.07-.15-.15v-.34c0-.09.07-.15.15-.15s.15.07.15.15v.34c0,.09-.07.15-.15.15Z"/><path class="cls-1" d="M8.17,12.84c-.12,0-.21-.09-.21-.21v-1.7c0-.12.09-.21.21-.21s.21.09.21.21v1.7c0,.12-.09.21-.21.21Z"/><path class="cls-1" d="M11.38,12.84c-.12,0-.21-.09-.21-.21v-1.7c0-.12.09-.21.21-.21s.21.09.21.21v1.7c0,.12-.09.21-.21.21Z"/><path class="cls-1" d="M14.72,12.84c-.12,0-.21-.09-.21-.21v-1.7c0-.12.09-.21.21-.21s.21.09.21.21v1.7c0,.12-.09.21-.21.21Z"/><path class="cls-1" d="M17.93,12.84c-.12,0-.21-.09-.21-.21v-1.7c0-.12.09-.21.21-.21s.21.09.21.21v1.7c0,.12-.09.21-.21.21Z"/><path class="cls-1" d="M9.75,12.82c-.57,0-1.04-.46-1.04-1.04s.46-1.04,1.04-1.04,1.04.46,1.04,1.04-.46,1.04-1.04,1.04ZM9.75,11.12c-.37,0-.66.3-.66.66s.3.66.66.66.66-.3.66-.66-.3-.66-.66-.66Z"/><path class="cls-1" d="M13.05,12.85c-.57,0-1.04-.46-1.04-1.04s.46-1.04,1.04-1.04,1.04.46,1.04,1.04-.46,1.04-1.04,1.04ZM13.05,11.15c-.37,0-.66.3-.66.66s.3.66.66.66.66-.3.66-.66-.3-.66-.66-.66Z"/><path class="cls-1" d="M16.35,12.85c-.57,0-1.03-.46-1.03-1.04s.46-1.04,1.03-1.04,1.04.46,1.04,1.04-.46,1.04-1.04,1.04ZM16.35,11.15c-.37,0-.66.3-.66.66s.3.66.66.66.66-.3.66-.66-.3-.66-.66-.66Z"/></svg>